<mxfile host="e29cab18-d2c5-4e51-99f6-31cb63c5c97a" modified="2020-09-08T04:49:02.192Z" agent="5.0 (Windows NT 10.0; Win64; x64) AppleWebKit/537.36 (KHTML, like Gecko) Code/1.48.2 Chrome/78.0.3904.130 Electron/7.3.2 Safari/537.36" etag="Iwj295d_wx2IGbTK4EcH" version="13.1.3" pages="3">
    <diagram id="6hGFLwfOUW9BJ-s0fimq" name="Page-1">
        <mxGraphModel dx="728" dy="647" grid="1" gridSize="10" guides="1" tooltips="1" connect="1" arrows="1" fold="1" page="1" pageScale="1" pageWidth="827" pageHeight="1169" math="0" shadow="0">
            <root>
                <mxCell id="0"/>
                <mxCell id="1" parent="0"/>
                <mxCell id="8" style="edgeStyle=orthogonalEdgeStyle;rounded=0;orthogonalLoop=1;jettySize=auto;html=1;exitX=1;exitY=0.5;exitDx=0;exitDy=0;" parent="1" source="2" target="6" edge="1">
                    <mxGeometry relative="1" as="geometry"/>
                </mxCell>
                <mxCell id="2" value="" style="ellipse;whiteSpace=wrap;html=1;aspect=fixed;" parent="1" vertex="1">
                    <mxGeometry x="170" y="150" width="50" height="50" as="geometry"/>
                </mxCell>
                <mxCell id="3" value="" style="shape=flexArrow;endArrow=classic;html=1;" parent="1" edge="1">
                    <mxGeometry width="50" height="50" relative="1" as="geometry">
                        <mxPoint x="92" y="176" as="sourcePoint"/>
                        <mxPoint x="162" y="176" as="targetPoint"/>
                        <Array as="points">
                            <mxPoint x="122" y="176"/>
                        </Array>
                    </mxGeometry>
                </mxCell>
                <mxCell id="9" style="edgeStyle=orthogonalEdgeStyle;rounded=0;orthogonalLoop=1;jettySize=auto;html=1;exitX=1;exitY=0.5;exitDx=0;exitDy=0;entryX=0;entryY=0.5;entryDx=0;entryDy=0;" parent="1" source="6" target="7" edge="1">
                    <mxGeometry relative="1" as="geometry"/>
                </mxCell>
                <mxCell id="6" value="" style="ellipse;whiteSpace=wrap;html=1;aspect=fixed;" parent="1" vertex="1">
                    <mxGeometry x="270" y="150" width="50" height="50" as="geometry"/>
                </mxCell>
                <mxCell id="7" value="" style="ellipse;whiteSpace=wrap;html=1;aspect=fixed;" parent="1" vertex="1">
                    <mxGeometry x="370" y="150" width="50" height="50" as="geometry"/>
                </mxCell>
                <mxCell id="10" value="1" style="text;html=1;strokeColor=none;fillColor=none;align=center;verticalAlign=middle;whiteSpace=wrap;rounded=0;" parent="1" vertex="1">
                    <mxGeometry x="220" y="150" width="40" height="20" as="geometry"/>
                </mxCell>
                <mxCell id="11" value="1" style="text;html=1;strokeColor=none;fillColor=none;align=center;verticalAlign=middle;whiteSpace=wrap;rounded=0;" parent="1" vertex="1">
                    <mxGeometry x="320" y="150" width="40" height="20" as="geometry"/>
                </mxCell>
                <mxCell id="12" value="" style="ellipse;shape=doubleEllipse;whiteSpace=wrap;html=1;aspect=fixed;" parent="1" vertex="1">
                    <mxGeometry x="470" y="150" width="50" height="50" as="geometry"/>
                </mxCell>
            </root>
        </mxGraphModel>
    </diagram>
    <diagram id="oYWxengobeLPBBD3oFiQ" name="Page-2">
        <mxGraphModel dx="647" dy="647" grid="1" gridSize="10" guides="1" tooltips="1" connect="1" arrows="1" fold="1" page="1" pageScale="1" pageWidth="827" pageHeight="1169" math="0" shadow="0">
            <root>
                <mxCell id="1hShreEU99HvepH-g0Eb-0"/>
                <mxCell id="1hShreEU99HvepH-g0Eb-1" parent="1hShreEU99HvepH-g0Eb-0"/>
                <mxCell id="1hShreEU99HvepH-g0Eb-9" value="" style="endArrow=none;html=1;" edge="1" parent="1hShreEU99HvepH-g0Eb-1">
                    <mxGeometry width="50" height="50" relative="1" as="geometry">
                        <mxPoint x="160" y="160" as="sourcePoint"/>
                        <mxPoint x="280" y="160" as="targetPoint"/>
                    </mxGeometry>
                </mxCell>
                <mxCell id="1hShreEU99HvepH-g0Eb-10" value="" style="endArrow=none;html=1;" edge="1" parent="1hShreEU99HvepH-g0Eb-1">
                    <mxGeometry width="50" height="50" relative="1" as="geometry">
                        <mxPoint x="160" y="240" as="sourcePoint"/>
                        <mxPoint x="160" y="160" as="targetPoint"/>
                        <Array as="points">
                            <mxPoint x="160" y="240"/>
                        </Array>
                    </mxGeometry>
                </mxCell>
                <mxCell id="1hShreEU99HvepH-g0Eb-11" value="" style="endArrow=none;html=1;" edge="1" parent="1hShreEU99HvepH-g0Eb-1">
                    <mxGeometry width="50" height="50" relative="1" as="geometry">
                        <mxPoint x="160" y="242" as="sourcePoint"/>
                        <mxPoint x="285" y="242" as="targetPoint"/>
                    </mxGeometry>
                </mxCell>
                <mxCell id="1hShreEU99HvepH-g0Eb-13" value="" style="endArrow=none;html=1;" edge="1" parent="1hShreEU99HvepH-g0Eb-1">
                    <mxGeometry width="50" height="50" relative="1" as="geometry">
                        <mxPoint x="280" y="240" as="sourcePoint"/>
                        <mxPoint x="280" y="160" as="targetPoint"/>
                        <Array as="points">
                            <mxPoint x="280" y="240"/>
                        </Array>
                    </mxGeometry>
                </mxCell>
                <mxCell id="1hShreEU99HvepH-g0Eb-14" value="" style="endArrow=none;html=1;" edge="1" parent="1hShreEU99HvepH-g0Eb-1">
                    <mxGeometry width="50" height="50" relative="1" as="geometry">
                        <mxPoint x="240" y="240" as="sourcePoint"/>
                        <mxPoint x="240" y="160" as="targetPoint"/>
                        <Array as="points">
                            <mxPoint x="240" y="240"/>
                        </Array>
                    </mxGeometry>
                </mxCell>
                <mxCell id="1hShreEU99HvepH-g0Eb-15" value="" style="endArrow=none;html=1;" edge="1" parent="1hShreEU99HvepH-g0Eb-1">
                    <mxGeometry width="50" height="50" relative="1" as="geometry">
                        <mxPoint x="200" y="240" as="sourcePoint"/>
                        <mxPoint x="200" y="160" as="targetPoint"/>
                        <Array as="points">
                            <mxPoint x="200" y="240"/>
                        </Array>
                    </mxGeometry>
                </mxCell>
                <mxCell id="1hShreEU99HvepH-g0Eb-16" value="" style="endArrow=none;html=1;" edge="1" parent="1hShreEU99HvepH-g0Eb-1">
                    <mxGeometry width="50" height="50" relative="1" as="geometry">
                        <mxPoint x="160" y="200" as="sourcePoint"/>
                        <mxPoint x="285" y="200" as="targetPoint"/>
                    </mxGeometry>
                </mxCell>
                <mxCell id="1hShreEU99HvepH-g0Eb-19" value="&lt;font style=&quot;font-size: 24px&quot;&gt;2-3&lt;/font&gt;" style="text;html=1;strokeColor=none;fillColor=none;align=center;verticalAlign=middle;whiteSpace=wrap;rounded=0;" vertex="1" parent="1hShreEU99HvepH-g0Eb-1">
                    <mxGeometry x="170" y="90" width="100" height="30" as="geometry"/>
                </mxCell>
                <mxCell id="1hShreEU99HvepH-g0Eb-20" value="3" style="text;html=1;strokeColor=none;fillColor=none;align=center;verticalAlign=middle;whiteSpace=wrap;rounded=0;" vertex="1" parent="1hShreEU99HvepH-g0Eb-1">
                    <mxGeometry x="160" y="170" width="40" height="20" as="geometry"/>
                </mxCell>
                <mxCell id="1hShreEU99HvepH-g0Eb-21" value="6" style="text;html=1;strokeColor=none;fillColor=none;align=center;verticalAlign=middle;whiteSpace=wrap;rounded=0;" vertex="1" parent="1hShreEU99HvepH-g0Eb-1">
                    <mxGeometry x="200" y="170" width="40" height="20" as="geometry"/>
                </mxCell>
                <mxCell id="1hShreEU99HvepH-g0Eb-22" value="2" style="text;html=1;strokeColor=none;fillColor=none;align=center;verticalAlign=middle;whiteSpace=wrap;rounded=0;" vertex="1" parent="1hShreEU99HvepH-g0Eb-1">
                    <mxGeometry x="240" y="170" width="40" height="20" as="geometry"/>
                </mxCell>
                <mxCell id="1hShreEU99HvepH-g0Eb-23" value="5" style="text;html=1;strokeColor=none;fillColor=none;align=center;verticalAlign=middle;whiteSpace=wrap;rounded=0;" vertex="1" parent="1hShreEU99HvepH-g0Eb-1">
                    <mxGeometry x="160" y="210" width="40" height="20" as="geometry"/>
                </mxCell>
                <mxCell id="1hShreEU99HvepH-g0Eb-24" value="1" style="text;html=1;strokeColor=none;fillColor=none;align=center;verticalAlign=middle;whiteSpace=wrap;rounded=0;" vertex="1" parent="1hShreEU99HvepH-g0Eb-1">
                    <mxGeometry x="200" y="210" width="40" height="20" as="geometry"/>
                </mxCell>
                <mxCell id="1hShreEU99HvepH-g0Eb-25" value="4" style="text;html=1;strokeColor=none;fillColor=none;align=center;verticalAlign=middle;whiteSpace=wrap;rounded=0;" vertex="1" parent="1hShreEU99HvepH-g0Eb-1">
                    <mxGeometry x="240" y="210" width="40" height="20" as="geometry"/>
                </mxCell>
                <mxCell id="1hShreEU99HvepH-g0Eb-26" value="&lt;font style=&quot;font-size: 14px&quot;&gt;los vecinos deben tener la |x-y|&amp;nbsp; &amp;nbsp; &amp;nbsp; &amp;nbsp;diferencia &amp;gt; 1&lt;/font&gt;" style="text;html=1;strokeColor=none;fillColor=none;align=center;verticalAlign=middle;whiteSpace=wrap;rounded=0;" vertex="1" parent="1hShreEU99HvepH-g0Eb-1">
                    <mxGeometry x="320" y="160" width="170" height="70" as="geometry"/>
                </mxCell>
                <mxCell id="1hShreEU99HvepH-g0Eb-28" value="" style="endArrow=none;html=1;" edge="1" parent="1hShreEU99HvepH-g0Eb-1">
                    <mxGeometry width="50" height="50" relative="1" as="geometry">
                        <mxPoint x="160" y="320" as="sourcePoint"/>
                        <mxPoint x="400" y="320" as="targetPoint"/>
                        <Array as="points"/>
                    </mxGeometry>
                </mxCell>
                <mxCell id="1hShreEU99HvepH-g0Eb-29" value="" style="endArrow=none;html=1;" edge="1" parent="1hShreEU99HvepH-g0Eb-1">
                    <mxGeometry width="50" height="50" relative="1" as="geometry">
                        <mxPoint x="160" y="360" as="sourcePoint"/>
                        <mxPoint x="400" y="360" as="targetPoint"/>
                        <Array as="points"/>
                    </mxGeometry>
                </mxCell>
                <mxCell id="1hShreEU99HvepH-g0Eb-30" value="" style="endArrow=none;html=1;" edge="1" parent="1hShreEU99HvepH-g0Eb-1">
                    <mxGeometry width="50" height="50" relative="1" as="geometry">
                        <mxPoint x="160" y="360" as="sourcePoint"/>
                        <mxPoint x="160" y="320" as="targetPoint"/>
                    </mxGeometry>
                </mxCell>
                <mxCell id="1hShreEU99HvepH-g0Eb-31" value="" style="endArrow=none;html=1;" edge="1" parent="1hShreEU99HvepH-g0Eb-1">
                    <mxGeometry width="50" height="50" relative="1" as="geometry">
                        <mxPoint x="400" y="360" as="sourcePoint"/>
                        <mxPoint x="400" y="320" as="targetPoint"/>
                    </mxGeometry>
                </mxCell>
                <mxCell id="1hShreEU99HvepH-g0Eb-32" value="" style="endArrow=none;html=1;" edge="1" parent="1hShreEU99HvepH-g0Eb-1">
                    <mxGeometry width="50" height="50" relative="1" as="geometry">
                        <mxPoint x="199" y="360" as="sourcePoint"/>
                        <mxPoint x="199" y="320" as="targetPoint"/>
                    </mxGeometry>
                </mxCell>
                <mxCell id="1hShreEU99HvepH-g0Eb-33" value="" style="endArrow=none;html=1;" edge="1" parent="1hShreEU99HvepH-g0Eb-1">
                    <mxGeometry width="50" height="50" relative="1" as="geometry">
                        <mxPoint x="240" y="360" as="sourcePoint"/>
                        <mxPoint x="240" y="320" as="targetPoint"/>
                        <Array as="points">
                            <mxPoint x="240" y="350"/>
                        </Array>
                    </mxGeometry>
                </mxCell>
                <mxCell id="1hShreEU99HvepH-g0Eb-34" value="" style="endArrow=none;html=1;" edge="1" parent="1hShreEU99HvepH-g0Eb-1">
                    <mxGeometry width="50" height="50" relative="1" as="geometry">
                        <mxPoint x="280" y="360" as="sourcePoint"/>
                        <mxPoint x="280" y="320" as="targetPoint"/>
                    </mxGeometry>
                </mxCell>
                <mxCell id="1hShreEU99HvepH-g0Eb-35" value="" style="endArrow=none;html=1;" edge="1" parent="1hShreEU99HvepH-g0Eb-1">
                    <mxGeometry width="50" height="50" relative="1" as="geometry">
                        <mxPoint x="320" y="360" as="sourcePoint"/>
                        <mxPoint x="320" y="320" as="targetPoint"/>
                    </mxGeometry>
                </mxCell>
                <mxCell id="1hShreEU99HvepH-g0Eb-36" value="" style="endArrow=none;html=1;" edge="1" parent="1hShreEU99HvepH-g0Eb-1">
                    <mxGeometry width="50" height="50" relative="1" as="geometry">
                        <mxPoint x="360" y="360" as="sourcePoint"/>
                        <mxPoint x="360" y="320" as="targetPoint"/>
                    </mxGeometry>
                </mxCell>
                <mxCell id="1hShreEU99HvepH-g0Eb-37" value="3" style="text;html=1;strokeColor=none;fillColor=none;align=center;verticalAlign=middle;whiteSpace=wrap;rounded=0;" vertex="1" parent="1hShreEU99HvepH-g0Eb-1">
                    <mxGeometry x="160" y="330" width="40" height="20" as="geometry"/>
                </mxCell>
                <mxCell id="1hShreEU99HvepH-g0Eb-38" value="6" style="text;html=1;strokeColor=none;fillColor=none;align=center;verticalAlign=middle;whiteSpace=wrap;rounded=0;" vertex="1" parent="1hShreEU99HvepH-g0Eb-1">
                    <mxGeometry x="200" y="330" width="40" height="20" as="geometry"/>
                </mxCell>
                <mxCell id="1hShreEU99HvepH-g0Eb-39" value="2" style="text;html=1;strokeColor=none;fillColor=none;align=center;verticalAlign=middle;whiteSpace=wrap;rounded=0;" vertex="1" parent="1hShreEU99HvepH-g0Eb-1">
                    <mxGeometry x="240" y="330" width="40" height="20" as="geometry"/>
                </mxCell>
                <mxCell id="1hShreEU99HvepH-g0Eb-40" value="5" style="text;html=1;strokeColor=none;fillColor=none;align=center;verticalAlign=middle;whiteSpace=wrap;rounded=0;" vertex="1" parent="1hShreEU99HvepH-g0Eb-1">
                    <mxGeometry x="280" y="330" width="40" height="20" as="geometry"/>
                </mxCell>
                <mxCell id="1hShreEU99HvepH-g0Eb-43" value="1" style="text;html=1;strokeColor=none;fillColor=none;align=center;verticalAlign=middle;whiteSpace=wrap;rounded=0;" vertex="1" parent="1hShreEU99HvepH-g0Eb-1">
                    <mxGeometry x="320" y="330" width="40" height="20" as="geometry"/>
                </mxCell>
                <mxCell id="1hShreEU99HvepH-g0Eb-44" value="4" style="text;html=1;strokeColor=none;fillColor=none;align=center;verticalAlign=middle;whiteSpace=wrap;rounded=0;" vertex="1" parent="1hShreEU99HvepH-g0Eb-1">
                    <mxGeometry x="360" y="330" width="40" height="20" as="geometry"/>
                </mxCell>
            </root>
        </mxGraphModel>
    </diagram>
    <diagram id="IsGhsUiLLkDSWo5Dk1sV" name="Page-3">
        <mxGraphModel dx="647" dy="647" grid="1" gridSize="10" guides="1" tooltips="1" connect="1" arrows="1" fold="1" page="1" pageScale="1" pageWidth="827" pageHeight="1169" math="0" shadow="0">
            <root>
                <mxCell id="mMnZNh5VJhmg4UtWHyUE-0"/>
                <mxCell id="mMnZNh5VJhmg4UtWHyUE-1" parent="mMnZNh5VJhmg4UtWHyUE-0"/>
                <mxCell id="mMnZNh5VJhmg4UtWHyUE-2" value="9" style="ellipse;whiteSpace=wrap;html=1;aspect=fixed;" vertex="1" parent="mMnZNh5VJhmg4UtWHyUE-1">
                    <mxGeometry x="250" y="160" width="50" height="50" as="geometry"/>
                </mxCell>
                <mxCell id="mMnZNh5VJhmg4UtWHyUE-3" value="10" style="ellipse;whiteSpace=wrap;html=1;aspect=fixed;" vertex="1" parent="mMnZNh5VJhmg4UtWHyUE-1">
                    <mxGeometry x="290" y="110" width="50" height="50" as="geometry"/>
                </mxCell>
                <mxCell id="mMnZNh5VJhmg4UtWHyUE-4" value="4" style="ellipse;whiteSpace=wrap;html=1;aspect=fixed;" vertex="1" parent="mMnZNh5VJhmg4UtWHyUE-1">
                    <mxGeometry x="420" y="220" width="50" height="50" as="geometry"/>
                </mxCell>
                <mxCell id="mMnZNh5VJhmg4UtWHyUE-5" value="8" style="ellipse;whiteSpace=wrap;html=1;aspect=fixed;" vertex="1" parent="mMnZNh5VJhmg4UtWHyUE-1">
                    <mxGeometry x="250" y="220" width="50" height="50" as="geometry"/>
                </mxCell>
                <mxCell id="mMnZNh5VJhmg4UtWHyUE-6" value="5" style="ellipse;whiteSpace=wrap;html=1;aspect=fixed;" vertex="1" parent="mMnZNh5VJhmg4UtWHyUE-1">
                    <mxGeometry x="400" y="270" width="50" height="50" as="geometry"/>
                </mxCell>
                <mxCell id="mMnZNh5VJhmg4UtWHyUE-7" value="7" style="ellipse;whiteSpace=wrap;html=1;aspect=fixed;" vertex="1" parent="mMnZNh5VJhmg4UtWHyUE-1">
                    <mxGeometry x="280" y="270" width="50" height="50" as="geometry"/>
                </mxCell>
                <mxCell id="mMnZNh5VJhmg4UtWHyUE-8" value="6" style="ellipse;whiteSpace=wrap;html=1;aspect=fixed;" vertex="1" parent="mMnZNh5VJhmg4UtWHyUE-1">
                    <mxGeometry x="330" y="290" width="65.07" height="50" as="geometry"/>
                </mxCell>
                <mxCell id="mMnZNh5VJhmg4UtWHyUE-9" value="3" style="ellipse;whiteSpace=wrap;html=1;aspect=fixed;" vertex="1" parent="mMnZNh5VJhmg4UtWHyUE-1">
                    <mxGeometry x="414" y="170" width="50" height="50" as="geometry"/>
                </mxCell>
                <mxCell id="mMnZNh5VJhmg4UtWHyUE-10" value="2" style="ellipse;whiteSpace=wrap;html=1;aspect=fixed;" vertex="1" parent="mMnZNh5VJhmg4UtWHyUE-1">
                    <mxGeometry x="400" y="120" width="50" height="50" as="geometry"/>
                </mxCell>
                <mxCell id="mMnZNh5VJhmg4UtWHyUE-11" value="1" style="ellipse;whiteSpace=wrap;html=1;aspect=fixed;" vertex="1" parent="mMnZNh5VJhmg4UtWHyUE-1">
                    <mxGeometry x="350" y="100" width="50" height="50" as="geometry"/>
                </mxCell>
                <mxCell id="mMnZNh5VJhmg4UtWHyUE-12" value="" style="shape=flexArrow;endArrow=classic;html=1;endWidth=34;endSize=7.92;entryX=0.5;entryY=0;entryDx=0;entryDy=0;" edge="1" parent="mMnZNh5VJhmg4UtWHyUE-1" target="mMnZNh5VJhmg4UtWHyUE-11">
                    <mxGeometry width="50" height="50" relative="1" as="geometry">
                        <mxPoint x="375" y="30" as="sourcePoint"/>
                        <mxPoint x="414" y="-20" as="targetPoint"/>
                    </mxGeometry>
                </mxCell>
            </root>
        </mxGraphModel>
    </diagram>
</mxfile>